<svg width="1024" height="753" viewBox="0 0 1024 753" fill="none" xmlns="http://www.w3.org/2000/svg">
<g clip-path="url(#clip0_175_1901)">
<rect width="1024" height="753" fill="#121214"/>
<g opacity="0.2" filter="url(#filter0_f_175_1901)">
<ellipse cx="528.5" cy="73" rx="670.5" ry="350" fill="#B3A659"/>
</g>
<path d="M49.0349 309C50.5302 309 51.6622 309.63 52.4308 310.891C53.2134 312.138 53.6047 313.953 53.6047 316.336C53.6047 318.719 53.2134 320.541 52.4308 321.802C51.6622 323.063 50.5302 323.693 49.0349 323.693C47.5536 323.693 46.4216 323.063 45.639 321.802C44.8564 320.541 44.4651 318.719 44.4651 316.336C44.4651 313.967 44.8564 312.152 45.639 310.891C46.4216 309.63 47.5536 309 49.0349 309ZM45.9534 316.336C45.9534 318.026 46.1072 319.35 46.4146 320.306L51.0683 311.099C50.5791 310.448 49.9013 310.122 49.0349 310.122C48.0706 310.122 47.316 310.635 46.771 311.66C46.2259 312.672 45.9534 314.23 45.9534 316.336ZM49.0349 322.55C50.0131 322.55 50.7748 322.044 51.3198 321.033C51.8648 320.008 52.1373 318.442 52.1373 316.336C52.1373 314.549 51.9627 313.163 51.6133 312.18L46.9596 321.469C47.4627 322.19 48.1545 322.55 49.0349 322.55Z" fill="url(#paint0_linear_175_1901)" fill-opacity="0.6"/>
<path d="M50.2926 346.135H53.3741V347.236H45.3874V346.135H48.9511V334.455L45.5551 336.471L44.9682 335.536L49.1607 332.959H50.2926V346.135Z" fill="url(#paint1_linear_175_1901)" fill-opacity="0.6"/>
<path d="M49.0349 356.502C50.5302 356.502 51.6622 357.133 52.4308 358.393C53.2134 359.64 53.6047 361.455 53.6047 363.838C53.6047 366.221 53.2134 368.043 52.4308 369.304C51.6622 370.565 50.5302 371.195 49.0349 371.195C47.5536 371.195 46.4216 370.565 45.639 369.304C44.8564 368.043 44.4651 366.221 44.4651 363.838C44.4651 361.469 44.8564 359.654 45.639 358.393C46.4216 357.133 47.5536 356.502 49.0349 356.502ZM45.9534 363.838C45.9534 365.529 46.1072 366.852 46.4146 367.808L51.0683 358.601C50.5791 357.95 49.9013 357.624 49.0349 357.624C48.0706 357.624 47.316 358.137 46.771 359.162C46.2259 360.174 45.9534 361.732 45.9534 363.838ZM49.0349 370.052C50.0131 370.052 50.7748 369.546 51.3198 368.535C51.8648 367.51 52.1373 365.944 52.1373 363.838C52.1373 362.051 51.9627 360.665 51.6133 359.682L46.9596 368.971C47.4627 369.692 48.1545 370.052 49.0349 370.052Z" fill="url(#paint2_linear_175_1901)" fill-opacity="0.6"/>
<path d="M50.2926 393.637H53.3741V394.738H45.3874V393.637H48.9511V381.957L45.5551 383.973L44.9682 383.038L49.1607 380.461H50.2926V393.637Z" fill="url(#paint3_linear_175_1901)" fill-opacity="0.6"/>
<path d="M50.2926 417.388H53.3741V418.489H45.3874V417.388H48.9511V405.708L45.5551 407.724L44.9682 406.789L49.1607 404.212H50.2926V417.388Z" fill="url(#paint4_linear_175_1901)" fill-opacity="0.6"/>
<path d="M49.0349 427.755C50.5302 427.755 51.6622 428.386 52.4308 429.646C53.2134 430.893 53.6047 432.708 53.6047 435.091C53.6047 437.474 53.2134 439.296 52.4308 440.557C51.6622 441.818 50.5302 442.448 49.0349 442.448C47.5536 442.448 46.4216 441.818 45.639 440.557C44.8564 439.296 44.4651 437.474 44.4651 435.091C44.4651 432.722 44.8564 430.907 45.639 429.646C46.4216 428.386 47.5536 427.755 49.0349 427.755ZM45.9534 435.091C45.9534 436.782 46.1072 438.105 46.4146 439.061L51.0683 429.854C50.5791 429.203 49.9013 428.878 49.0349 428.878C48.0706 428.878 47.316 429.39 46.771 430.415C46.2259 431.427 45.9534 432.985 45.9534 435.091ZM49.0349 441.305C50.0131 441.305 50.7748 440.8 51.3198 439.788C51.8648 438.763 52.1373 437.197 52.1373 435.091C52.1373 433.304 51.9627 431.919 51.6133 430.935L46.9596 440.225C47.4627 440.945 48.1545 441.305 49.0349 441.305Z" fill="url(#paint5_linear_175_1901)" fill-opacity="0.6"/>
<path d="M50.2926 464.89H53.3741V465.992H45.3874V464.89H48.9511V453.21L45.5551 455.226L44.9682 454.291L49.1607 451.714H50.2926V464.89Z" fill="url(#paint6_linear_175_1901)" fill-opacity="0.6"/>
<path d="M49.0349 475.257C50.5302 475.257 51.6622 475.888 52.4308 477.149C53.2134 478.396 53.6047 480.211 53.6047 482.594C53.6047 484.977 53.2134 486.798 52.4308 488.059C51.6622 489.32 50.5302 489.95 49.0349 489.95C47.5536 489.95 46.4216 489.32 45.639 488.059C44.8564 486.798 44.4651 484.977 44.4651 482.594C44.4651 480.224 44.8564 478.409 45.639 477.149C46.4216 475.888 47.5536 475.257 49.0349 475.257ZM45.9534 482.594C45.9534 484.284 46.1072 485.607 46.4146 486.563L51.0683 477.356C50.5791 476.705 49.9013 476.38 49.0349 476.38C48.0706 476.38 47.316 476.892 46.771 477.918C46.2259 478.929 45.9534 480.488 45.9534 482.594ZM49.0349 488.807C50.0131 488.807 50.7748 488.302 51.3198 487.29C51.8648 486.265 52.1373 484.699 52.1373 482.594C52.1373 480.806 51.9627 479.421 51.6133 478.437L46.9596 487.727C47.4627 488.447 48.1545 488.807 49.0349 488.807Z" fill="url(#paint7_linear_175_1901)" fill-opacity="0.6"/>
<path d="M49.0349 499.008C50.5302 499.008 51.6622 499.639 52.4308 500.9C53.2134 502.147 53.6047 503.962 53.6047 506.345C53.6047 508.728 53.2134 510.549 52.4308 511.81C51.6622 513.071 50.5302 513.701 49.0349 513.701C47.5536 513.701 46.4216 513.071 45.639 511.81C44.8564 510.549 44.4651 508.728 44.4651 506.345C44.4651 503.975 44.8564 502.16 45.639 500.9C46.4216 499.639 47.5536 499.008 49.0349 499.008ZM45.9534 506.345C45.9534 508.035 46.1072 509.358 46.4146 510.314L51.0683 501.107C50.5791 500.456 49.9013 500.131 49.0349 500.131C48.0706 500.131 47.316 500.643 46.771 501.669C46.2259 502.68 45.9534 504.239 45.9534 506.345ZM49.0349 512.558C50.0131 512.558 50.7748 512.053 51.3198 511.041C51.8648 510.016 52.1373 508.451 52.1373 506.345C52.1373 504.557 51.9627 503.172 51.6133 502.188L46.9596 511.478C47.4627 512.198 48.1545 512.558 49.0349 512.558Z" fill="url(#paint8_linear_175_1901)" fill-opacity="0.6"/>
<path d="M50.2926 536.143H53.3741V537.245H45.3874V536.143H48.9511V524.464L45.5551 526.48L44.9682 525.544L49.1607 522.967H50.2926V536.143Z" fill="url(#paint9_linear_175_1901)" fill-opacity="0.6"/>
<path d="M49.0349 546.511C50.5302 546.511 51.6622 547.141 52.4308 548.402C53.2134 549.649 53.6047 551.464 53.6047 553.847C53.6047 556.23 53.2134 558.052 52.4308 559.312C51.6622 560.573 50.5302 561.204 49.0349 561.204C47.5536 561.204 46.4216 560.573 45.639 559.312C44.8564 558.052 44.4651 556.23 44.4651 553.847C44.4651 551.478 44.8564 549.663 45.639 548.402C46.4216 547.141 47.5536 546.511 49.0349 546.511ZM45.9534 553.847C45.9534 555.537 46.1072 556.86 46.4146 557.816L51.0683 548.61C50.5791 547.958 49.9013 547.633 49.0349 547.633C48.0706 547.633 47.316 548.145 46.771 549.171C46.2259 550.182 45.9534 551.741 45.9534 553.847ZM49.0349 560.061C50.0131 560.061 50.7748 559.555 51.3198 558.543C51.8648 557.518 52.1373 555.953 52.1373 553.847C52.1373 552.059 51.9627 550.674 51.6133 549.69L46.9596 558.98C47.4627 559.7 48.1545 560.061 49.0349 560.061Z" fill="url(#paint10_linear_175_1901)" fill-opacity="0.6"/>
<path d="M50.2926 583.645H53.3741V584.747H45.3874V583.645H48.9511V571.966L45.5551 573.982L44.9682 573.046L49.1607 570.469H50.2926V583.645Z" fill="url(#paint11_linear_175_1901)" fill-opacity="0.6"/>
<path d="M50.2926 607.396H53.3741V608.498H45.3874V607.396H48.9511V595.717L45.5551 597.733L44.9682 596.798L49.1607 594.221H50.2926V607.396Z" fill="url(#paint12_linear_175_1901)" fill-opacity="0.6"/>
<path d="M87.9651 356.502C89.4604 356.502 90.5924 357.133 91.361 358.393C92.1436 359.64 92.5349 361.455 92.5349 363.838C92.5349 366.221 92.1436 368.043 91.361 369.304C90.5924 370.565 89.4604 371.195 87.9651 371.195C86.4838 371.195 85.3518 370.565 84.5692 369.304C83.7866 368.043 83.3953 366.221 83.3953 363.838C83.3953 361.469 83.7866 359.654 84.5692 358.393C85.3518 357.133 86.4838 356.502 87.9651 356.502ZM84.8836 363.838C84.8836 365.529 85.0374 366.852 85.3448 367.808L89.9985 358.601C89.5093 357.95 88.8315 357.624 87.9651 357.624C87.0008 357.624 86.2462 358.137 85.7012 359.162C85.1561 360.174 84.8836 361.732 84.8836 363.838ZM87.9651 370.052C88.9433 370.052 89.705 369.546 90.25 368.535C90.795 367.51 91.0675 365.944 91.0675 363.838C91.0675 362.051 90.8928 360.665 90.5435 359.682L85.8898 368.971C86.3929 369.692 87.0847 370.052 87.9651 370.052Z" fill="url(#paint13_linear_175_1901)" fill-opacity="0.6"/>
<path d="M89.2228 393.637H92.3043V394.738H84.3176V393.637H87.8812V381.957L84.4853 383.973L83.8984 383.038L88.0909 380.461H89.2228V393.637Z" fill="url(#paint14_linear_175_1901)" fill-opacity="0.6"/>
<path d="M87.9651 404.004C89.4604 404.004 90.5924 404.635 91.361 405.895C92.1436 407.142 92.5349 408.957 92.5349 411.34C92.5349 413.723 92.1436 415.545 91.361 416.806C90.5924 418.067 89.4604 418.697 87.9651 418.697C86.4838 418.697 85.3518 418.067 84.5692 416.806C83.7866 415.545 83.3953 413.723 83.3953 411.34C83.3953 408.971 83.7866 407.156 84.5692 405.895C85.3518 404.635 86.4838 404.004 87.9651 404.004ZM84.8836 411.34C84.8836 413.031 85.0374 414.354 85.3448 415.31L89.9985 406.103C89.5093 405.452 88.8315 405.126 87.9651 405.126C87.0008 405.126 86.2462 405.639 85.7012 406.664C85.1561 407.676 84.8836 409.234 84.8836 411.34ZM87.9651 417.554C88.9433 417.554 89.705 417.049 90.25 416.037C90.795 415.012 91.0675 413.446 91.0675 411.34C91.0675 409.553 90.8928 408.168 90.5435 407.184L85.8898 416.474C86.3929 417.194 87.0847 417.554 87.9651 417.554Z" fill="url(#paint15_linear_175_1901)" fill-opacity="0.6"/>
<path d="M87.9651 427.755C89.4604 427.755 90.5924 428.386 91.361 429.646C92.1436 430.893 92.5349 432.708 92.5349 435.091C92.5349 437.474 92.1436 439.296 91.361 440.557C90.5924 441.818 89.4604 442.448 87.9651 442.448C86.4838 442.448 85.3518 441.818 84.5692 440.557C83.7866 439.296 83.3953 437.474 83.3953 435.091C83.3953 432.722 83.7866 430.907 84.5692 429.646C85.3518 428.386 86.4838 427.755 87.9651 427.755ZM84.8836 435.091C84.8836 436.782 85.0374 438.105 85.3448 439.061L89.9985 429.854C89.5093 429.203 88.8315 428.878 87.9651 428.878C87.0008 428.878 86.2462 429.39 85.7012 430.415C85.1561 431.427 84.8836 432.985 84.8836 435.091ZM87.9651 441.305C88.9433 441.305 89.705 440.8 90.25 439.788C90.795 438.763 91.0675 437.197 91.0675 435.091C91.0675 433.304 90.8928 431.919 90.5435 430.935L85.8898 440.225C86.3929 440.945 87.0847 441.305 87.9651 441.305Z" fill="url(#paint16_linear_175_1901)" fill-opacity="0.6"/>
<path d="M89.2228 464.89H92.3043V465.992H84.3176V464.89H87.8812V453.21L84.4853 455.226L83.8984 454.291L88.0909 451.714H89.2228V464.89Z" fill="url(#paint17_linear_175_1901)" fill-opacity="0.6"/>
<path d="M87.9651 475.257C89.4604 475.257 90.5924 475.888 91.361 477.149C92.1436 478.396 92.5349 480.211 92.5349 482.594C92.5349 484.977 92.1436 486.798 91.361 488.059C90.5924 489.32 89.4604 489.95 87.9651 489.95C86.4838 489.95 85.3518 489.32 84.5692 488.059C83.7866 486.798 83.3953 484.977 83.3953 482.594C83.3953 480.224 83.7866 478.409 84.5692 477.149C85.3518 475.888 86.4838 475.257 87.9651 475.257ZM84.8836 482.594C84.8836 484.284 85.0374 485.607 85.3448 486.563L89.9985 477.356C89.5093 476.705 88.8315 476.38 87.9651 476.38C87.0008 476.38 86.2462 476.892 85.7012 477.918C85.1561 478.929 84.8836 480.488 84.8836 482.594ZM87.9651 488.807C88.9433 488.807 89.705 488.302 90.25 487.29C90.795 486.265 91.0675 484.699 91.0675 482.594C91.0675 480.806 90.8928 479.421 90.5435 478.437L85.8898 487.727C86.3929 488.447 87.0847 488.807 87.9651 488.807Z" fill="url(#paint18_linear_175_1901)" fill-opacity="0.6"/>
<path d="M89.2228 512.392H92.3043V513.494H84.3176V512.392H87.8812V500.713L84.4853 502.728L83.8984 501.793L88.0909 499.216H89.2228V512.392Z" fill="url(#paint19_linear_175_1901)" fill-opacity="0.6"/>
<path d="M87.9651 522.76C89.4604 522.76 90.5924 523.39 91.361 524.651C92.1436 525.898 92.5349 527.713 92.5349 530.096C92.5349 532.479 92.1436 534.301 91.361 535.561C90.5924 536.822 89.4604 537.453 87.9651 537.453C86.4838 537.453 85.3518 536.822 84.5692 535.561C83.7866 534.301 83.3953 532.479 83.3953 530.096C83.3953 527.726 83.7866 525.911 84.5692 524.651C85.3518 523.39 86.4838 522.76 87.9651 522.76ZM84.8836 530.096C84.8836 531.786 85.0374 533.109 85.3448 534.065L89.9985 524.859C89.5093 524.207 88.8315 523.882 87.9651 523.882C87.0008 523.882 86.2462 524.394 85.7012 525.42C85.1561 526.431 84.8836 527.99 84.8836 530.096ZM87.9651 536.31C88.9433 536.31 89.705 535.804 90.25 534.792C90.795 533.767 91.0675 532.202 91.0675 530.096C91.0675 528.308 90.8928 526.923 90.5435 525.939L85.8898 535.229C86.3929 535.949 87.0847 536.31 87.9651 536.31Z" fill="url(#paint20_linear_175_1901)" fill-opacity="0.6"/>
<path d="M87.9651 546.511C89.4604 546.511 90.5924 547.141 91.361 548.402C92.1436 549.649 92.5349 551.464 92.5349 553.847C92.5349 556.23 92.1436 558.052 91.361 559.312C90.5924 560.573 89.4604 561.204 87.9651 561.204C86.4838 561.204 85.3518 560.573 84.5692 559.312C83.7866 558.052 83.3953 556.23 83.3953 553.847C83.3953 551.478 83.7866 549.663 84.5692 548.402C85.3518 547.141 86.4838 546.511 87.9651 546.511ZM84.8836 553.847C84.8836 555.537 85.0374 556.86 85.3448 557.816L89.9985 548.61C89.5093 547.958 88.8315 547.633 87.9651 547.633C87.0008 547.633 86.2462 548.145 85.7012 549.171C85.1561 550.182 84.8836 551.741 84.8836 553.847ZM87.9651 560.061C88.9433 560.061 89.705 559.555 90.25 558.543C90.795 557.518 91.0675 555.953 91.0675 553.847C91.0675 552.059 90.8928 550.674 90.5435 549.69L85.8898 558.98C86.3929 559.7 87.0847 560.061 87.9651 560.061Z" fill="url(#paint21_linear_175_1901)" fill-opacity="0.6"/>
<path d="M89.2228 583.645H92.3043V584.747H84.3176V583.645H87.8812V571.966L84.4853 573.982L83.8984 573.046L88.0909 570.469H89.2228V583.645Z" fill="url(#paint22_linear_175_1901)" fill-opacity="0.6"/>
<path d="M87.9651 594.013C89.4604 594.013 90.5924 594.643 91.361 595.904C92.1436 597.151 92.5349 598.966 92.5349 601.349C92.5349 603.732 92.1436 605.554 91.361 606.815C90.5924 608.075 89.4604 608.706 87.9651 608.706C86.4838 608.706 85.3518 608.075 84.5692 606.815C83.7866 605.554 83.3953 603.732 83.3953 601.349C83.3953 598.98 83.7866 597.165 84.5692 595.904C85.3518 594.643 86.4838 594.013 87.9651 594.013ZM84.8836 601.349C84.8836 603.039 85.0374 604.362 85.3448 605.318L89.9985 596.112C89.5093 595.461 88.8315 595.135 87.9651 595.135C87.0008 595.135 86.2462 595.648 85.7012 596.673C85.1561 597.684 84.8836 599.243 84.8836 601.349ZM87.9651 607.563C88.9433 607.563 89.705 607.057 90.25 606.046C90.795 605.02 91.0675 603.455 91.0675 601.349C91.0675 599.562 90.8928 598.176 90.5435 597.192L85.8898 606.482C86.3929 607.202 87.0847 607.563 87.9651 607.563Z" fill="url(#paint23_linear_175_1901)" fill-opacity="0.6"/>
<path d="M89.2228 631.148H92.3043V632.249H84.3176V631.148H87.8812V619.468L84.4853 621.484L83.8984 620.549L88.0909 617.972H89.2228V631.148Z" fill="url(#paint24_linear_175_1901)" fill-opacity="0.6"/>
<path d="M89.2228 654.899H92.3043V656H84.3176V654.899H87.8812V643.219L84.4853 645.235L83.8984 644.3L88.0909 641.723H89.2228V654.899Z" fill="url(#paint25_linear_175_1901)" fill-opacity="0.6"/>
<path d="M29.5698 380.253C31.0651 380.253 32.1971 380.884 32.9657 382.144C33.7483 383.391 34.1396 385.206 34.1396 387.589C34.1396 389.972 33.7483 391.794 32.9657 393.055C32.1971 394.316 31.0651 394.946 29.5698 394.946C28.0885 394.946 26.9565 394.316 26.1739 393.055C25.3913 391.794 25 389.972 25 387.589C25 385.22 25.3913 383.405 26.1739 382.144C26.9565 380.884 28.0885 380.253 29.5698 380.253ZM26.4883 387.589C26.4883 389.28 26.6421 390.603 26.9495 391.559L31.6032 382.352C31.114 381.701 30.4363 381.375 29.5698 381.375C28.6055 381.375 27.8509 381.888 27.3059 382.913C26.7608 383.925 26.4883 385.483 26.4883 387.589ZM29.5698 393.803C30.5481 393.803 31.3097 393.297 31.8547 392.286C32.3997 391.261 32.6722 389.695 32.6722 387.589C32.6722 385.802 32.4976 384.417 32.1482 383.433L27.4945 392.722C27.9976 393.443 28.6894 393.803 29.5698 393.803Z" fill="url(#paint26_linear_175_1901)" fill-opacity="0.6"/>
<path d="M29.5698 404.004C31.0651 404.004 32.1971 404.635 32.9657 405.895C33.7483 407.142 34.1396 408.957 34.1396 411.34C34.1396 413.723 33.7483 415.545 32.9657 416.806C32.1971 418.067 31.0651 418.697 29.5698 418.697C28.0885 418.697 26.9565 418.067 26.1739 416.806C25.3913 415.545 25 413.723 25 411.34C25 408.971 25.3913 407.156 26.1739 405.895C26.9565 404.635 28.0885 404.004 29.5698 404.004ZM26.4883 411.34C26.4883 413.031 26.6421 414.354 26.9495 415.31L31.6032 406.103C31.114 405.452 30.4363 405.126 29.5698 405.126C28.6055 405.126 27.8509 405.639 27.3059 406.664C26.7608 407.676 26.4883 409.234 26.4883 411.34ZM29.5698 417.554C30.5481 417.554 31.3097 417.049 31.8547 416.037C32.3997 415.012 32.6722 413.446 32.6722 411.34C32.6722 409.553 32.4976 408.168 32.1482 407.184L27.4945 416.474C27.9976 417.194 28.6894 417.554 29.5698 417.554Z" fill="url(#paint27_linear_175_1901)" fill-opacity="0.6"/>
<path d="M30.8276 441.139H33.909V442.24H25.9223V441.139H29.486V429.459L26.09 431.475L25.5031 430.54L29.6956 427.963H30.8276V441.139Z" fill="url(#paint28_linear_175_1901)" fill-opacity="0.6"/>
<path d="M29.5698 451.506C31.0651 451.506 32.1971 452.137 32.9657 453.398C33.7483 454.644 34.1396 456.459 34.1396 458.842C34.1396 461.225 33.7483 463.047 32.9657 464.308C32.1971 465.569 31.0651 466.199 29.5698 466.199C28.0885 466.199 26.9565 465.569 26.1739 464.308C25.3913 463.047 25 461.225 25 458.842C25 456.473 25.3913 454.658 26.1739 453.398C26.9565 452.137 28.0885 451.506 29.5698 451.506ZM26.4883 458.842C26.4883 460.533 26.6421 461.856 26.9495 462.812L31.6032 453.605C31.114 452.954 30.4363 452.629 29.5698 452.629C28.6055 452.629 27.8509 453.141 27.3059 454.166C26.7608 455.178 26.4883 456.737 26.4883 458.842ZM29.5698 465.056C30.5481 465.056 31.3097 464.551 31.8547 463.539C32.3997 462.514 32.6722 460.948 32.6722 458.842C32.6722 457.055 32.4976 455.67 32.1482 454.686L27.4945 463.976C27.9976 464.696 28.6894 465.056 29.5698 465.056Z" fill="url(#paint29_linear_175_1901)" fill-opacity="0.6"/>
<path d="M30.8276 488.641H33.909V489.743H25.9223V488.641H29.486V476.962L26.09 478.977L25.5031 478.042L29.6956 475.465H30.8276V488.641Z" fill="url(#paint30_linear_175_1901)" fill-opacity="0.6"/>
<path d="M30.8276 512.392H33.909V513.494H25.9223V512.392H29.486V500.713L26.09 502.728L25.5031 501.793L29.6956 499.216H30.8276V512.392Z" fill="url(#paint31_linear_175_1901)" fill-opacity="0.6"/>
<path d="M69.7577 346.135H72.8392V347.236H64.8525V346.135H68.4162V334.455L65.0202 336.471L64.4333 335.536L68.6258 332.959H69.7577V346.135Z" fill="url(#paint32_linear_175_1901)" fill-opacity="0.6"/>
<path d="M68.5 356.502C69.9953 356.502 71.1273 357.133 71.8959 358.393C72.6785 359.64 73.0698 361.455 73.0698 363.838C73.0698 366.221 72.6785 368.043 71.8959 369.304C71.1273 370.565 69.9953 371.195 68.5 371.195C67.0187 371.195 65.8867 370.565 65.1041 369.304C64.3215 368.043 63.9302 366.221 63.9302 363.838C63.9302 361.469 64.3215 359.654 65.1041 358.393C65.8867 357.133 67.0187 356.502 68.5 356.502ZM65.4185 363.838C65.4185 365.529 65.5723 366.852 65.8797 367.808L70.5334 358.601C70.0442 357.95 69.3664 357.624 68.5 357.624C67.5357 357.624 66.7811 358.137 66.2361 359.162C65.691 360.174 65.4185 361.732 65.4185 363.838ZM68.5 370.052C69.4782 370.052 70.2399 369.546 70.7849 368.535C71.3299 367.51 71.6024 365.944 71.6024 363.838C71.6024 362.051 71.4277 360.665 71.0784 359.682L66.4247 368.971C66.9278 369.692 67.6196 370.052 68.5 370.052Z" fill="url(#paint33_linear_175_1901)" fill-opacity="0.6"/>
<path d="M69.7577 393.637H72.8392V394.738H64.8525V393.637H68.4162V381.957L65.0202 383.973L64.4333 383.038L68.6258 380.461H69.7577V393.637Z" fill="url(#paint34_linear_175_1901)" fill-opacity="0.6"/>
<path d="M69.7577 417.388H72.8392V418.489H64.8525V417.388H68.4162V405.708L65.0202 407.724L64.4333 406.789L68.6258 404.212H69.7577V417.388Z" fill="url(#paint35_linear_175_1901)" fill-opacity="0.6"/>
<path d="M68.5 427.755C69.9953 427.755 71.1273 428.386 71.8959 429.646C72.6785 430.893 73.0698 432.708 73.0698 435.091C73.0698 437.474 72.6785 439.296 71.8959 440.557C71.1273 441.818 69.9953 442.448 68.5 442.448C67.0187 442.448 65.8867 441.818 65.1041 440.557C64.3215 439.296 63.9302 437.474 63.9302 435.091C63.9302 432.722 64.3215 430.907 65.1041 429.646C65.8867 428.386 67.0187 427.755 68.5 427.755ZM65.4185 435.091C65.4185 436.782 65.5723 438.105 65.8797 439.061L70.5334 429.854C70.0442 429.203 69.3664 428.878 68.5 428.878C67.5357 428.878 66.7811 429.39 66.2361 430.415C65.691 431.427 65.4185 432.985 65.4185 435.091ZM68.5 441.305C69.4782 441.305 70.2399 440.8 70.7849 439.788C71.3299 438.763 71.6024 437.197 71.6024 435.091C71.6024 433.304 71.4277 431.919 71.0784 430.935L66.4247 440.225C66.9278 440.945 67.6196 441.305 68.5 441.305Z" fill="url(#paint36_linear_175_1901)" fill-opacity="0.6"/>
<path d="M69.7577 464.89H72.8392V465.992H64.8525V464.89H68.4162V453.21L65.0202 455.226L64.4333 454.291L68.6258 451.714H69.7577V464.89Z" fill="url(#paint37_linear_175_1901)" fill-opacity="0.6"/>
<path d="M69.7577 488.641H72.8392V489.743H64.8525V488.641H68.4162V476.962L65.0202 478.977L64.4333 478.042L68.6258 475.465H69.7577V488.641Z" fill="url(#paint38_linear_175_1901)" fill-opacity="0.6"/>
<path d="M68.5 499.008C69.9953 499.008 71.1273 499.639 71.8959 500.9C72.6785 502.147 73.0698 503.962 73.0698 506.345C73.0698 508.728 72.6785 510.549 71.8959 511.81C71.1273 513.071 69.9953 513.701 68.5 513.701C67.0187 513.701 65.8867 513.071 65.1041 511.81C64.3215 510.549 63.9302 508.728 63.9302 506.345C63.9302 503.975 64.3215 502.16 65.1041 500.9C65.8867 499.639 67.0187 499.008 68.5 499.008ZM65.4185 506.345C65.4185 508.035 65.5723 509.358 65.8797 510.314L70.5334 501.107C70.0442 500.456 69.3664 500.131 68.5 500.131C67.5357 500.131 66.7811 500.643 66.2361 501.669C65.691 502.68 65.4185 504.239 65.4185 506.345ZM68.5 512.558C69.4782 512.558 70.2399 512.053 70.7849 511.041C71.3299 510.016 71.6024 508.451 71.6024 506.345C71.6024 504.557 71.4277 503.172 71.0784 502.188L66.4247 511.478C66.9278 512.198 67.6196 512.558 68.5 512.558Z" fill="url(#paint39_linear_175_1901)" fill-opacity="0.6"/>
<path d="M69.7577 536.143H72.8392V537.245H64.8525V536.143H68.4162V524.464L65.0202 526.48L64.4333 525.544L68.6258 522.967H69.7577V536.143Z" fill="url(#paint40_linear_175_1901)" fill-opacity="0.6"/>
<path d="M68.5 546.511C69.9953 546.511 71.1273 547.141 71.8959 548.402C72.6785 549.649 73.0698 551.464 73.0698 553.847C73.0698 556.23 72.6785 558.052 71.8959 559.312C71.1273 560.573 69.9953 561.204 68.5 561.204C67.0187 561.204 65.8867 560.573 65.1041 559.312C64.3215 558.052 63.9302 556.23 63.9302 553.847C63.9302 551.478 64.3215 549.663 65.1041 548.402C65.8867 547.141 67.0187 546.511 68.5 546.511ZM65.4185 553.847C65.4185 555.537 65.5723 556.86 65.8797 557.816L70.5334 548.61C70.0442 547.958 69.3664 547.633 68.5 547.633C67.5357 547.633 66.7811 548.145 66.2361 549.171C65.691 550.182 65.4185 551.741 65.4185 553.847ZM68.5 560.061C69.4782 560.061 70.2399 559.555 70.7849 558.543C71.3299 557.518 71.6024 555.953 71.6024 553.847C71.6024 552.059 71.4277 550.674 71.0784 549.69L66.4247 558.98C66.9278 559.7 67.6196 560.061 68.5 560.061Z" fill="url(#paint41_linear_175_1901)" fill-opacity="0.6"/>
<path d="M107.43 332.751C108.926 332.751 110.057 333.381 110.826 334.642C111.609 335.889 112 337.704 112 340.087C112 342.47 111.609 344.292 110.826 345.553C110.057 346.814 108.926 347.444 107.43 347.444C105.949 347.444 104.817 346.814 104.034 345.553C103.252 344.292 102.86 342.47 102.86 340.087C102.86 337.718 103.252 335.903 104.034 334.642C104.817 333.381 105.949 332.751 107.43 332.751ZM104.349 340.087C104.349 341.777 104.502 343.101 104.81 344.057L109.464 334.85C108.974 334.199 108.297 333.873 107.43 333.873C106.466 333.873 105.711 334.386 105.166 335.411C104.621 336.423 104.349 337.981 104.349 340.087ZM107.43 346.301C108.408 346.301 109.17 345.795 109.715 344.784C110.26 343.759 110.533 342.193 110.533 340.087C110.533 338.3 110.358 336.914 110.009 335.931L105.355 345.22C105.858 345.941 106.55 346.301 107.43 346.301Z" fill="url(#paint42_linear_175_1901)" fill-opacity="0.6"/>
<path d="M108.688 369.886H111.769V370.987H103.783V369.886H107.346V358.206L103.95 360.222L103.363 359.287L107.556 356.71H108.688V369.886Z" fill="url(#paint43_linear_175_1901)" fill-opacity="0.6"/>
<path d="M108.688 393.637H111.769V394.738H103.783V393.637H107.346V381.957L103.95 383.973L103.363 383.038L107.556 380.461H108.688V393.637Z" fill="url(#paint44_linear_175_1901)" fill-opacity="0.6"/>
<path d="M107.43 404.004C108.926 404.004 110.057 404.635 110.826 405.895C111.609 407.142 112 408.957 112 411.34C112 413.723 111.609 415.545 110.826 416.806C110.057 418.067 108.926 418.697 107.43 418.697C105.949 418.697 104.817 418.067 104.034 416.806C103.252 415.545 102.86 413.723 102.86 411.34C102.86 408.971 103.252 407.156 104.034 405.895C104.817 404.635 105.949 404.004 107.43 404.004ZM104.349 411.34C104.349 413.031 104.502 414.354 104.81 415.31L109.464 406.103C108.974 405.452 108.297 405.126 107.43 405.126C106.466 405.126 105.711 405.639 105.166 406.664C104.621 407.676 104.349 409.234 104.349 411.34ZM107.43 417.554C108.408 417.554 109.17 417.049 109.715 416.037C110.26 415.012 110.533 413.446 110.533 411.34C110.533 409.553 110.358 408.168 110.009 407.184L105.355 416.474C105.858 417.194 106.55 417.554 107.43 417.554Z" fill="url(#paint45_linear_175_1901)" fill-opacity="0.6"/>
<path d="M107.43 427.755C108.926 427.755 110.057 428.386 110.826 429.646C111.609 430.893 112 432.708 112 435.091C112 437.474 111.609 439.296 110.826 440.557C110.057 441.818 108.926 442.448 107.43 442.448C105.949 442.448 104.817 441.818 104.034 440.557C103.252 439.296 102.86 437.474 102.86 435.091C102.86 432.722 103.252 430.907 104.034 429.646C104.817 428.386 105.949 427.755 107.43 427.755ZM104.349 435.091C104.349 436.782 104.502 438.105 104.81 439.061L109.464 429.854C108.974 429.203 108.297 428.878 107.43 428.878C106.466 428.878 105.711 429.39 105.166 430.415C104.621 431.427 104.349 432.985 104.349 435.091ZM107.43 441.305C108.408 441.305 109.17 440.8 109.715 439.788C110.26 438.763 110.533 437.197 110.533 435.091C110.533 433.304 110.358 431.919 110.009 430.935L105.355 440.225C105.858 440.945 106.55 441.305 107.43 441.305Z" fill="url(#paint46_linear_175_1901)" fill-opacity="0.6"/>
<g opacity="0.6">
<path d="M935.93 9C937.356 9 938.436 9.60496 939.17 10.8149C939.916 12.0115 940.29 13.7532 940.29 16.0401C940.29 18.327 939.916 20.0754 939.17 21.2853C938.436 22.4952 937.356 23.1002 935.93 23.1002C934.517 23.1002 933.437 22.4952 932.69 21.2853C931.943 20.0754 931.57 18.327 931.57 16.0401C931.57 13.7665 931.943 12.0248 932.69 10.8149C933.437 9.60496 934.517 9 935.93 9ZM932.99 16.0401C932.99 17.6622 933.137 18.932 933.43 19.8494L937.87 11.0143C937.403 10.3894 936.756 10.077 935.93 10.077C935.01 10.077 934.29 10.5689 933.77 11.5528C933.25 12.5234 932.99 14.0192 932.99 16.0401ZM935.93 22.0033C936.863 22.0033 937.59 21.518 938.11 20.5474C938.63 19.5635 938.89 18.0611 938.89 16.0401C938.89 14.325 938.723 12.9954 938.39 12.0514L933.95 20.9662C934.43 21.6576 935.09 22.0033 935.93 22.0033Z" fill="url(#paint47_linear_175_1901)"/>
<path d="M937.13 44.6365H940.07V45.6936H932.45V44.6365H935.85V33.4282L932.61 35.3627L932.05 34.4653L936.05 31.9922H937.13V44.6365Z" fill="url(#paint48_linear_175_1901)"/>
<path d="M935.93 54.5856C937.356 54.5856 938.436 55.1906 939.17 56.4005C939.916 57.5971 940.29 59.3389 940.29 61.6257C940.29 63.9126 939.916 65.661 939.17 66.8709C938.436 68.0808 937.356 68.6858 935.93 68.6858C934.517 68.6858 933.437 68.0808 932.69 66.8709C931.943 65.661 931.57 63.9126 931.57 61.6257C931.57 59.3522 931.943 57.6104 932.69 56.4005C933.437 55.1906 934.517 54.5856 935.93 54.5856ZM932.99 61.6257C932.99 63.2478 933.137 64.5176 933.43 65.435L937.87 56.5999C937.403 55.975 936.756 55.6626 935.93 55.6626C935.01 55.6626 934.29 56.1545 933.77 57.1384C933.25 58.109 932.99 59.6048 932.99 61.6257ZM935.93 67.5889C936.863 67.5889 937.59 67.1036 938.11 66.133C938.63 65.1491 938.89 63.6467 938.89 61.6257C938.89 59.9106 938.723 58.581 938.39 57.637L933.95 66.5518C934.43 67.2432 935.09 67.5889 935.93 67.5889Z" fill="url(#paint49_linear_175_1901)"/>
<path d="M937.13 90.2221H940.07V91.2792H932.45V90.2221H935.85V79.0138L932.61 80.9483L932.05 80.0509L936.05 77.5778H937.13V90.2221Z" fill="url(#paint50_linear_175_1901)"/>
<path d="M937.13 113.015H940.07V114.072H932.45V113.015H935.85V101.807L932.61 103.741L932.05 102.844L936.05 100.371H937.13V113.015Z" fill="url(#paint51_linear_175_1901)"/>
<path d="M935.93 122.964C937.356 122.964 938.436 123.569 939.17 124.779C939.916 125.976 940.29 127.717 940.29 130.004C940.29 132.291 939.916 134.039 939.17 135.249C938.436 136.459 937.356 137.064 935.93 137.064C934.517 137.064 933.437 136.459 932.69 135.249C931.943 134.039 931.57 132.291 931.57 130.004C931.57 127.731 931.943 125.989 932.69 124.779C933.437 123.569 934.517 122.964 935.93 122.964ZM932.99 130.004C932.99 131.626 933.137 132.896 933.43 133.813L937.87 124.978C937.403 124.353 936.756 124.041 935.93 124.041C935.01 124.041 934.29 124.533 933.77 125.517C933.25 126.487 932.99 127.983 932.99 130.004ZM935.93 135.967C936.863 135.967 937.59 135.482 938.11 134.511C938.63 133.528 938.89 132.025 938.89 130.004C938.89 128.289 938.723 126.959 938.39 126.015L933.95 134.93C934.43 135.622 935.09 135.967 935.93 135.967Z" fill="url(#paint52_linear_175_1901)"/>
<path d="M937.13 158.601H940.07V159.658H932.45V158.601H935.85V147.392L932.61 149.327L932.05 148.429L936.05 145.956H937.13V158.601Z" fill="url(#paint53_linear_175_1901)"/>
<path d="M935.93 168.55C937.356 168.55 938.436 169.155 939.17 170.365C939.916 171.561 940.29 173.303 940.29 175.59C940.29 177.877 939.916 179.625 939.17 180.835C938.436 182.045 937.356 182.65 935.93 182.65C934.517 182.65 933.437 182.045 932.69 180.835C931.943 179.625 931.57 177.877 931.57 175.59C931.57 173.316 931.943 171.574 932.69 170.365C933.437 169.155 934.517 168.55 935.93 168.55ZM932.99 175.59C932.99 177.212 933.137 178.482 933.43 179.399L937.87 170.564C937.403 169.939 936.756 169.627 935.93 169.627C935.01 169.627 934.29 170.119 933.77 171.102C933.25 172.073 932.99 173.569 932.99 175.59ZM935.93 181.553C936.863 181.553 937.59 181.068 938.11 180.097C938.63 179.113 938.89 177.611 938.89 175.59C938.89 173.875 938.723 172.545 938.39 171.601L933.95 180.516C934.43 181.207 935.09 181.553 935.93 181.553Z" fill="url(#paint54_linear_175_1901)"/>
<path d="M935.93 191.342C937.356 191.342 938.436 191.947 939.17 193.157C939.916 194.354 940.29 196.096 940.29 198.383C940.29 200.669 939.916 202.418 939.17 203.628C938.436 204.838 937.356 205.443 935.93 205.443C934.517 205.443 933.437 204.838 932.69 203.628C931.943 202.418 931.57 200.669 931.57 198.383C931.57 196.109 931.943 194.367 932.69 193.157C933.437 191.947 934.517 191.342 935.93 191.342ZM932.99 198.383C932.99 200.005 933.137 201.274 933.43 202.192L937.87 193.357C937.403 192.732 936.756 192.419 935.93 192.419C935.01 192.419 934.29 192.911 933.77 193.895C933.25 194.866 932.99 196.362 932.99 198.383ZM935.93 204.346C936.863 204.346 937.59 203.86 938.11 202.89C938.63 201.906 938.89 200.404 938.89 198.383C938.89 196.667 938.723 195.338 938.39 194.394L933.95 203.309C934.43 204 935.09 204.346 935.93 204.346Z" fill="url(#paint55_linear_175_1901)"/>
<path d="M937.13 226.979H940.07V228.036H932.45V226.979H935.85V215.771L932.61 217.705L932.05 216.808L936.05 214.335H937.13V226.979Z" fill="url(#paint56_linear_175_1901)"/>
<path d="M935.93 236.928C937.356 236.928 938.436 237.533 939.17 238.743C939.916 239.94 940.29 241.681 940.29 243.968C940.29 246.255 939.916 248.003 939.17 249.213C938.436 250.423 937.356 251.028 935.93 251.028C934.517 251.028 933.437 250.423 932.69 249.213C931.943 248.003 931.57 246.255 931.57 243.968C931.57 241.695 931.943 239.953 932.69 238.743C933.437 237.533 934.517 236.928 935.93 236.928ZM932.99 243.968C932.99 245.59 933.137 246.86 933.43 247.777L937.87 238.942C937.403 238.317 936.756 238.005 935.93 238.005C935.01 238.005 934.29 238.497 933.77 239.481C933.25 240.451 932.99 241.947 932.99 243.968ZM935.93 249.931C936.863 249.931 937.59 249.446 938.11 248.475C938.63 247.492 938.89 245.989 938.89 243.968C938.89 242.253 938.723 240.923 938.39 239.979L933.95 248.894C934.43 249.586 935.09 249.931 935.93 249.931Z" fill="url(#paint57_linear_175_1901)"/>
<path d="M937.13 272.565H940.07V273.622H932.45V272.565H935.85V261.356L932.61 263.291L932.05 262.393L936.05 259.92H937.13V272.565Z" fill="url(#paint58_linear_175_1901)"/>
<path d="M937.13 295.357H940.07V296.414H932.45V295.357H935.85V284.149L932.61 286.084L932.05 285.186L936.05 282.713H937.13V295.357Z" fill="url(#paint59_linear_175_1901)"/>
<path d="M973.07 54.5856C974.497 54.5856 975.577 55.1906 976.31 56.4005C977.057 57.5971 977.43 59.3389 977.43 61.6257C977.43 63.9126 977.057 65.661 976.31 66.8709C975.577 68.0808 974.497 68.6858 973.07 68.6858C971.657 68.6858 970.577 68.0808 969.83 66.8709C969.084 65.661 968.71 63.9126 968.71 61.6257C968.71 59.3522 969.084 57.6104 969.83 56.4005C970.577 55.1906 971.657 54.5856 973.07 54.5856ZM970.13 61.6257C970.13 63.2478 970.277 64.5176 970.57 65.435L975.01 56.5999C974.543 55.975 973.897 55.6626 973.07 55.6626C972.15 55.6626 971.43 56.1545 970.91 57.1384C970.39 58.109 970.13 59.6048 970.13 61.6257ZM973.07 67.5889C974.003 67.5889 974.73 67.1036 975.25 66.133C975.77 65.1491 976.03 63.6467 976.03 61.6257C976.03 59.9106 975.863 58.581 975.53 57.637L971.09 66.5518C971.57 67.2432 972.23 67.5889 973.07 67.5889Z" fill="url(#paint60_linear_175_1901)"/>
<path d="M974.27 90.2221H977.21V91.2792H969.59V90.2221H972.99V79.0138L969.75 80.9483L969.19 80.0509L973.19 77.5778H974.27V90.2221Z" fill="url(#paint61_linear_175_1901)"/>
<path d="M973.07 100.171C974.497 100.171 975.577 100.776 976.31 101.986C977.057 103.183 977.43 104.924 977.43 107.211C977.43 109.498 977.057 111.247 976.31 112.457C975.577 113.666 974.497 114.271 973.07 114.271C971.657 114.271 970.577 113.666 969.83 112.457C969.084 111.247 968.71 109.498 968.71 107.211C968.71 104.938 969.084 103.196 969.83 101.986C970.577 100.776 971.657 100.171 973.07 100.171ZM970.13 107.211C970.13 108.833 970.277 110.103 970.57 111.021L975.01 102.186C974.543 101.561 973.897 101.248 973.07 101.248C972.15 101.248 971.43 101.74 970.91 102.724C970.39 103.695 970.13 105.19 970.13 107.211ZM973.07 113.174C974.003 113.174 974.73 112.689 975.25 111.719C975.77 110.735 976.03 109.232 976.03 107.211C976.03 105.496 975.863 104.167 975.53 103.223L971.09 112.137C971.57 112.829 972.23 113.174 973.07 113.174Z" fill="url(#paint62_linear_175_1901)"/>
<path d="M973.07 122.964C974.497 122.964 975.577 123.569 976.31 124.779C977.057 125.976 977.43 127.717 977.43 130.004C977.43 132.291 977.057 134.039 976.31 135.249C975.577 136.459 974.497 137.064 973.07 137.064C971.657 137.064 970.577 136.459 969.83 135.249C969.084 134.039 968.71 132.291 968.71 130.004C968.71 127.731 969.084 125.989 969.83 124.779C970.577 123.569 971.657 122.964 973.07 122.964ZM970.13 130.004C970.13 131.626 970.277 132.896 970.57 133.813L975.01 124.978C974.543 124.353 973.897 124.041 973.07 124.041C972.15 124.041 971.43 124.533 970.91 125.517C970.39 126.487 970.13 127.983 970.13 130.004ZM973.07 135.967C974.003 135.967 974.73 135.482 975.25 134.511C975.77 133.528 976.03 132.025 976.03 130.004C976.03 128.289 975.863 126.959 975.53 126.015L971.09 134.93C971.57 135.622 972.23 135.967 973.07 135.967Z" fill="url(#paint63_linear_175_1901)"/>
<path d="M974.27 158.601H977.21V159.658H969.59V158.601H972.99V147.392L969.75 149.327L969.19 148.429L973.19 145.956H974.27V158.601Z" fill="url(#paint64_linear_175_1901)"/>
<path d="M973.07 168.55C974.497 168.55 975.577 169.155 976.31 170.365C977.057 171.561 977.43 173.303 977.43 175.59C977.43 177.877 977.057 179.625 976.31 180.835C975.577 182.045 974.497 182.65 973.07 182.65C971.657 182.65 970.577 182.045 969.83 180.835C969.084 179.625 968.71 177.877 968.71 175.59C968.71 173.316 969.084 171.574 969.83 170.365C970.577 169.155 971.657 168.55 973.07 168.55ZM970.13 175.59C970.13 177.212 970.277 178.482 970.57 179.399L975.01 170.564C974.543 169.939 973.897 169.627 973.07 169.627C972.15 169.627 971.43 170.119 970.91 171.102C970.39 172.073 970.13 173.569 970.13 175.59ZM973.07 181.553C974.003 181.553 974.73 181.068 975.25 180.097C975.77 179.113 976.03 177.611 976.03 175.59C976.03 173.875 975.863 172.545 975.53 171.601L971.09 180.516C971.57 181.207 972.23 181.553 973.07 181.553Z" fill="url(#paint65_linear_175_1901)"/>
<path d="M974.27 204.186H977.21V205.243H969.59V204.186H972.99V192.978L969.75 194.912L969.19 194.015L973.19 191.542H974.27V204.186Z" fill="url(#paint66_linear_175_1901)"/>
<path d="M973.07 214.135C974.497 214.135 975.577 214.74 976.31 215.95C977.057 217.147 977.43 218.888 977.43 221.175C977.43 223.462 977.057 225.211 976.31 226.421C975.577 227.63 974.497 228.235 973.07 228.235C971.657 228.235 970.577 227.63 969.83 226.421C969.084 225.211 968.71 223.462 968.71 221.175C968.71 218.902 969.084 217.16 969.83 215.95C970.577 214.74 971.657 214.135 973.07 214.135ZM970.13 221.175C970.13 222.797 970.277 224.067 970.57 224.985L975.01 216.15C974.543 215.525 973.897 215.212 973.07 215.212C972.15 215.212 971.43 215.704 970.91 216.688C970.39 217.659 970.13 219.154 970.13 221.175ZM973.07 227.139C974.003 227.139 974.73 226.653 975.25 225.683C975.77 224.699 976.03 223.196 976.03 221.175C976.03 219.46 975.863 218.131 975.53 217.187L971.09 226.101C971.57 226.793 972.23 227.139 973.07 227.139Z" fill="url(#paint67_linear_175_1901)"/>
<path d="M973.07 236.928C974.497 236.928 975.577 237.533 976.31 238.743C977.057 239.94 977.43 241.681 977.43 243.968C977.43 246.255 977.057 248.003 976.31 249.213C975.577 250.423 974.497 251.028 973.07 251.028C971.657 251.028 970.577 250.423 969.83 249.213C969.084 248.003 968.71 246.255 968.71 243.968C968.71 241.695 969.084 239.953 969.83 238.743C970.577 237.533 971.657 236.928 973.07 236.928ZM970.13 243.968C970.13 245.59 970.277 246.86 970.57 247.777L975.01 238.942C974.543 238.317 973.897 238.005 973.07 238.005C972.15 238.005 971.43 238.497 970.91 239.481C970.39 240.451 970.13 241.947 970.13 243.968ZM973.07 249.931C974.003 249.931 974.73 249.446 975.25 248.475C975.77 247.492 976.03 245.989 976.03 243.968C976.03 242.253 975.863 240.923 975.53 239.979L971.09 248.894C971.57 249.586 972.23 249.931 973.07 249.931Z" fill="url(#paint68_linear_175_1901)"/>
<path d="M974.27 272.565H977.21V273.622H969.59V272.565H972.99V261.356L969.75 263.291L969.19 262.393L973.19 259.92H974.27V272.565Z" fill="url(#paint69_linear_175_1901)"/>
<path d="M973.07 282.514C974.497 282.514 975.577 283.119 976.31 284.329C977.057 285.525 977.43 287.267 977.43 289.554C977.43 291.841 977.057 293.589 976.31 294.799C975.577 296.009 974.497 296.614 973.07 296.614C971.657 296.614 970.577 296.009 969.83 294.799C969.084 293.589 968.71 291.841 968.71 289.554C968.71 287.28 969.084 285.538 969.83 284.329C970.577 283.119 971.657 282.514 973.07 282.514ZM970.13 289.554C970.13 291.176 970.277 292.446 970.57 293.363L975.01 284.528C974.543 283.903 973.897 283.591 973.07 283.591C972.15 283.591 971.43 284.083 970.91 285.066C970.39 286.037 970.13 287.533 970.13 289.554ZM973.07 295.517C974.003 295.517 974.73 295.032 975.25 294.061C975.77 293.077 976.03 291.575 976.03 289.554C976.03 287.839 975.863 286.509 975.53 285.565L971.09 294.48C971.57 295.171 972.23 295.517 973.07 295.517Z" fill="url(#paint70_linear_175_1901)"/>
<path d="M974.27 318.15H977.21V319.207H969.59V318.15H972.99V306.942L969.75 308.876L969.19 307.979L973.19 305.506H974.27V318.15Z" fill="url(#paint71_linear_175_1901)"/>
<path d="M974.27 340.943H977.21V342H969.59V340.943H972.99V329.735L969.75 331.669L969.19 330.772L973.19 328.299H974.27V340.943Z" fill="url(#paint72_linear_175_1901)"/>
<path d="M917.36 77.3784C918.786 77.3784 919.866 77.9834 920.599 79.1933C921.346 80.3899 921.719 82.1317 921.719 84.4185C921.719 86.7054 921.346 88.4538 920.599 89.6637C919.866 90.8736 918.786 91.4786 917.36 91.4786C915.946 91.4786 914.867 90.8736 914.12 89.6637C913.373 88.4538 913 86.7054 913 84.4185C913 82.145 913.373 80.4032 914.12 79.1933C914.867 77.9834 915.946 77.3784 917.36 77.3784ZM914.42 84.4185C914.42 86.0406 914.567 87.3104 914.86 88.2278L919.3 79.3927C918.833 78.7678 918.186 78.4554 917.36 78.4554C916.44 78.4554 915.72 78.9473 915.2 79.9312C914.68 80.9018 914.42 82.3976 914.42 84.4185ZM917.36 90.3817C918.293 90.3817 919.02 89.8964 919.54 88.9258C920.06 87.9419 920.319 86.4395 920.319 84.4185C920.319 82.7034 920.153 81.3738 919.82 80.4298L915.38 89.3446C915.86 90.036 916.52 90.3817 917.36 90.3817Z" fill="url(#paint73_linear_175_1901)"/>
<path d="M917.36 100.171C918.786 100.171 919.866 100.776 920.599 101.986C921.346 103.183 921.719 104.924 921.719 107.211C921.719 109.498 921.346 111.247 920.599 112.457C919.866 113.666 918.786 114.271 917.36 114.271C915.946 114.271 914.867 113.666 914.12 112.457C913.373 111.247 913 109.498 913 107.211C913 104.938 913.373 103.196 914.12 101.986C914.867 100.776 915.946 100.171 917.36 100.171ZM914.42 107.211C914.42 108.833 914.567 110.103 914.86 111.021L919.3 102.186C918.833 101.561 918.186 101.248 917.36 101.248C916.44 101.248 915.72 101.74 915.2 102.724C914.68 103.695 914.42 105.19 914.42 107.211ZM917.36 113.174C918.293 113.174 919.02 112.689 919.54 111.719C920.06 110.735 920.319 109.232 920.319 107.211C920.319 105.496 920.153 104.167 919.82 103.223L915.38 112.137C915.86 112.829 916.52 113.174 917.36 113.174Z" fill="url(#paint74_linear_175_1901)"/>
<path d="M918.56 135.808H921.499V136.865H913.88V135.808H917.28V124.599L914.04 126.534L913.48 125.636L917.48 123.163H918.56V135.808Z" fill="url(#paint75_linear_175_1901)"/>
<path d="M917.36 145.757C918.786 145.757 919.866 146.362 920.599 147.572C921.346 148.768 921.719 150.51 921.719 152.797C921.719 155.084 921.346 156.832 920.599 158.042C919.866 159.252 918.786 159.857 917.36 159.857C915.946 159.857 914.867 159.252 914.12 158.042C913.373 156.832 913 155.084 913 152.797C913 150.523 913.373 148.782 914.12 147.572C914.867 146.362 915.946 145.757 917.36 145.757ZM914.42 152.797C914.42 154.419 914.567 155.689 914.86 156.606L919.3 147.771C918.833 147.146 918.186 146.834 917.36 146.834C916.44 146.834 915.72 147.326 915.2 148.31C914.68 149.28 914.42 150.776 914.42 152.797ZM917.36 158.76C918.293 158.76 919.02 158.275 919.54 157.304C920.06 156.32 920.319 154.818 920.319 152.797C920.319 151.082 920.153 149.752 919.82 148.808L915.38 157.723C915.86 158.414 916.52 158.76 917.36 158.76Z" fill="url(#paint76_linear_175_1901)"/>
<path d="M918.56 181.393H921.499V182.45H913.88V181.393H917.28V170.185L914.04 172.12L913.48 171.222L917.48 168.749H918.56V181.393Z" fill="url(#paint77_linear_175_1901)"/>
<path d="M918.56 204.186H921.499V205.243H913.88V204.186H917.28V192.978L914.04 194.912L913.48 194.015L917.48 191.542H918.56V204.186Z" fill="url(#paint78_linear_175_1901)"/>
<path d="M955.7 44.6365H958.64V45.6936H951.02V44.6365H954.42V33.4282L951.18 35.3627L950.62 34.4653L954.62 31.9922H955.7V44.6365Z" fill="url(#paint79_linear_175_1901)"/>
<path d="M954.5 54.5856C955.927 54.5856 957.006 55.1906 957.74 56.4005C958.486 57.5971 958.86 59.3389 958.86 61.6257C958.86 63.9126 958.486 65.661 957.74 66.8709C957.006 68.0808 955.927 68.6858 954.5 68.6858C953.087 68.6858 952.007 68.0808 951.26 66.8709C950.514 65.661 950.14 63.9126 950.14 61.6257C950.14 59.3522 950.514 57.6104 951.26 56.4005C952.007 55.1906 953.087 54.5856 954.5 54.5856ZM951.56 61.6257C951.56 63.2478 951.707 64.5176 952 65.435L956.44 56.5999C955.973 55.975 955.327 55.6626 954.5 55.6626C953.58 55.6626 952.86 56.1545 952.34 57.1384C951.82 58.109 951.56 59.6048 951.56 61.6257ZM954.5 67.5889C955.433 67.5889 956.16 67.1036 956.68 66.133C957.2 65.1491 957.46 63.6467 957.46 61.6257C957.46 59.9106 957.293 58.581 956.96 57.637L952.52 66.5518C953 67.2432 953.66 67.5889 954.5 67.5889Z" fill="url(#paint80_linear_175_1901)"/>
<path d="M955.7 90.2221H958.64V91.2792H951.02V90.2221H954.42V79.0138L951.18 80.9483L950.62 80.0509L954.62 77.5778H955.7V90.2221Z" fill="url(#paint81_linear_175_1901)"/>
<path d="M955.7 113.015H958.64V114.072H951.02V113.015H954.42V101.807L951.18 103.741L950.62 102.844L954.62 100.371H955.7V113.015Z" fill="url(#paint82_linear_175_1901)"/>
<path d="M954.5 122.964C955.927 122.964 957.006 123.569 957.74 124.779C958.486 125.976 958.86 127.717 958.86 130.004C958.86 132.291 958.486 134.039 957.74 135.249C957.006 136.459 955.927 137.064 954.5 137.064C953.087 137.064 952.007 136.459 951.26 135.249C950.514 134.039 950.14 132.291 950.14 130.004C950.14 127.731 950.514 125.989 951.26 124.779C952.007 123.569 953.087 122.964 954.5 122.964ZM951.56 130.004C951.56 131.626 951.707 132.896 952 133.813L956.44 124.978C955.973 124.353 955.327 124.041 954.5 124.041C953.58 124.041 952.86 124.533 952.34 125.517C951.82 126.487 951.56 127.983 951.56 130.004ZM954.5 135.967C955.433 135.967 956.16 135.482 956.68 134.511C957.2 133.528 957.46 132.025 957.46 130.004C957.46 128.289 957.293 126.959 956.96 126.015L952.52 134.93C953 135.622 953.66 135.967 954.5 135.967Z" fill="url(#paint83_linear_175_1901)"/>
<path d="M955.7 158.601H958.64V159.658H951.02V158.601H954.42V147.392L951.18 149.327L950.62 148.429L954.62 145.956H955.7V158.601Z" fill="url(#paint84_linear_175_1901)"/>
<path d="M955.7 181.393H958.64V182.45H951.02V181.393H954.42V170.185L951.18 172.12L950.62 171.222L954.62 168.749H955.7V181.393Z" fill="url(#paint85_linear_175_1901)"/>
<path d="M954.5 191.342C955.927 191.342 957.006 191.947 957.74 193.157C958.486 194.354 958.86 196.096 958.86 198.383C958.86 200.669 958.486 202.418 957.74 203.628C957.006 204.838 955.927 205.443 954.5 205.443C953.087 205.443 952.007 204.838 951.26 203.628C950.514 202.418 950.14 200.669 950.14 198.383C950.14 196.109 950.514 194.367 951.26 193.157C952.007 191.947 953.087 191.342 954.5 191.342ZM951.56 198.383C951.56 200.005 951.707 201.274 952 202.192L956.44 193.357C955.973 192.732 955.327 192.419 954.5 192.419C953.58 192.419 952.86 192.911 952.34 193.895C951.82 194.866 951.56 196.362 951.56 198.383ZM954.5 204.346C955.433 204.346 956.16 203.86 956.68 202.89C957.2 201.906 957.46 200.404 957.46 198.383C957.46 196.667 957.293 195.338 956.96 194.394L952.52 203.309C953 204 953.66 204.346 954.5 204.346Z" fill="url(#paint86_linear_175_1901)"/>
<path d="M955.7 226.979H958.64V228.036H951.02V226.979H954.42V215.771L951.18 217.705L950.62 216.808L954.62 214.335H955.7V226.979Z" fill="url(#paint87_linear_175_1901)"/>
<path d="M954.5 236.928C955.927 236.928 957.006 237.533 957.74 238.743C958.486 239.94 958.86 241.681 958.86 243.968C958.86 246.255 958.486 248.003 957.74 249.213C957.006 250.423 955.927 251.028 954.5 251.028C953.087 251.028 952.007 250.423 951.26 249.213C950.514 248.003 950.14 246.255 950.14 243.968C950.14 241.695 950.514 239.953 951.26 238.743C952.007 237.533 953.087 236.928 954.5 236.928ZM951.56 243.968C951.56 245.59 951.707 246.86 952 247.777L956.44 238.942C955.973 238.317 955.327 238.005 954.5 238.005C953.58 238.005 952.86 238.497 952.34 239.481C951.82 240.451 951.56 241.947 951.56 243.968ZM954.5 249.931C955.433 249.931 956.16 249.446 956.68 248.475C957.2 247.492 957.46 245.989 957.46 243.968C957.46 242.253 957.293 240.923 956.96 239.979L952.52 248.894C953 249.586 953.66 249.931 954.5 249.931Z" fill="url(#paint88_linear_175_1901)"/>
<path d="M991.64 31.7928C993.067 31.7928 994.147 32.3978 994.88 33.6077C995.627 34.8043 996 36.5461 996 38.8329C996 41.1198 995.627 42.8682 994.88 44.0781C994.147 45.288 993.067 45.893 991.64 45.893C990.227 45.893 989.147 45.288 988.401 44.0781C987.654 42.8682 987.281 41.1198 987.281 38.8329C987.281 36.5593 987.654 34.8176 988.401 33.6077C989.147 32.3978 990.227 31.7928 991.64 31.7928ZM988.7 38.8329C988.7 40.455 988.847 41.7248 989.14 42.6422L993.58 33.8071C993.114 33.1822 992.467 32.8698 991.64 32.8698C990.72 32.8698 990 33.3617 989.48 34.3456C988.96 35.3162 988.7 36.812 988.7 38.8329ZM991.64 44.7961C992.574 44.7961 993.3 44.3108 993.82 43.3402C994.34 42.3563 994.6 40.8539 994.6 38.8329C994.6 37.1178 994.433 35.7882 994.1 34.8442L989.66 43.759C990.14 44.4504 990.8 44.7961 991.64 44.7961Z" fill="url(#paint89_linear_175_1901)"/>
<path d="M992.84 67.4293H995.78V68.4864H988.161V67.4293H991.56V56.221L988.321 58.1555L987.761 57.2581L991.76 54.785H992.84V67.4293Z" fill="url(#paint90_linear_175_1901)"/>
<path d="M992.84 90.2221H995.78V91.2792H988.161V90.2221H991.56V79.0138L988.321 80.9483L987.761 80.0509L991.76 77.5778H992.84V90.2221Z" fill="url(#paint91_linear_175_1901)"/>
<path d="M991.64 100.171C993.067 100.171 994.147 100.776 994.88 101.986C995.627 103.183 996 104.924 996 107.211C996 109.498 995.627 111.247 994.88 112.457C994.147 113.666 993.067 114.271 991.64 114.271C990.227 114.271 989.147 113.666 988.401 112.457C987.654 111.247 987.281 109.498 987.281 107.211C987.281 104.938 987.654 103.196 988.401 101.986C989.147 100.776 990.227 100.171 991.64 100.171ZM988.7 107.211C988.7 108.833 988.847 110.103 989.14 111.021L993.58 102.186C993.114 101.561 992.467 101.248 991.64 101.248C990.72 101.248 990 101.74 989.48 102.724C988.96 103.695 988.7 105.19 988.7 107.211ZM991.64 113.174C992.574 113.174 993.3 112.689 993.82 111.719C994.34 110.735 994.6 109.232 994.6 107.211C994.6 105.496 994.433 104.167 994.1 103.223L989.66 112.137C990.14 112.829 990.8 113.174 991.64 113.174Z" fill="url(#paint92_linear_175_1901)"/>
<path d="M991.64 122.964C993.067 122.964 994.147 123.569 994.88 124.779C995.627 125.976 996 127.717 996 130.004C996 132.291 995.627 134.039 994.88 135.249C994.147 136.459 993.067 137.064 991.64 137.064C990.227 137.064 989.147 136.459 988.401 135.249C987.654 134.039 987.281 132.291 987.281 130.004C987.281 127.731 987.654 125.989 988.401 124.779C989.147 123.569 990.227 122.964 991.64 122.964ZM988.7 130.004C988.7 131.626 988.847 132.896 989.14 133.813L993.58 124.978C993.114 124.353 992.467 124.041 991.64 124.041C990.72 124.041 990 124.533 989.48 125.517C988.96 126.487 988.7 127.983 988.7 130.004ZM991.64 135.967C992.574 135.967 993.3 135.482 993.82 134.511C994.34 133.528 994.6 132.025 994.6 130.004C994.6 128.289 994.433 126.959 994.1 126.015L989.66 134.93C990.14 135.622 990.8 135.967 991.64 135.967Z" fill="url(#paint93_linear_175_1901)"/>
</g>
</g>
<defs>
<filter id="filter0_f_175_1901" x="-542.19" y="-677.19" width="2141.38" height="1500.38" filterUnits="userSpaceOnUse" color-interpolation-filters="sRGB">
<feFlood flood-opacity="0" result="BackgroundImageFix"/>
<feBlend mode="normal" in="SourceGraphic" in2="BackgroundImageFix" result="shape"/>
<feGaussianBlur stdDeviation="200.095" result="effect1_foregroundBlur_175_1901"/>
</filter>
<linearGradient id="paint0_linear_175_1901" x1="68.5" y1="309" x2="68.5" y2="620.381" gradientUnits="userSpaceOnUse">
<stop stop-color="#F7DD43"/>
<stop offset="1" stop-color="#F7DD43" stop-opacity="0"/>
</linearGradient>
<linearGradient id="paint1_linear_175_1901" x1="68.5" y1="309" x2="68.5" y2="620.381" gradientUnits="userSpaceOnUse">
<stop stop-color="#F7DD43"/>
<stop offset="1" stop-color="#F7DD43" stop-opacity="0"/>
</linearGradient>
<linearGradient id="paint2_linear_175_1901" x1="68.5" y1="309" x2="68.5" y2="620.381" gradientUnits="userSpaceOnUse">
<stop stop-color="#F7DD43"/>
<stop offset="1" stop-color="#F7DD43" stop-opacity="0"/>
</linearGradient>
<linearGradient id="paint3_linear_175_1901" x1="68.5" y1="309" x2="68.5" y2="620.381" gradientUnits="userSpaceOnUse">
<stop stop-color="#F7DD43"/>
<stop offset="1" stop-color="#F7DD43" stop-opacity="0"/>
</linearGradient>
<linearGradient id="paint4_linear_175_1901" x1="68.5" y1="309" x2="68.5" y2="620.381" gradientUnits="userSpaceOnUse">
<stop stop-color="#F7DD43"/>
<stop offset="1" stop-color="#F7DD43" stop-opacity="0"/>
</linearGradient>
<linearGradient id="paint5_linear_175_1901" x1="68.5" y1="309" x2="68.5" y2="620.381" gradientUnits="userSpaceOnUse">
<stop stop-color="#F7DD43"/>
<stop offset="1" stop-color="#F7DD43" stop-opacity="0"/>
</linearGradient>
<linearGradient id="paint6_linear_175_1901" x1="68.5" y1="309" x2="68.5" y2="620.381" gradientUnits="userSpaceOnUse">
<stop stop-color="#F7DD43"/>
<stop offset="1" stop-color="#F7DD43" stop-opacity="0"/>
</linearGradient>
<linearGradient id="paint7_linear_175_1901" x1="68.5" y1="309" x2="68.5" y2="620.381" gradientUnits="userSpaceOnUse">
<stop stop-color="#F7DD43"/>
<stop offset="1" stop-color="#F7DD43" stop-opacity="0"/>
</linearGradient>
<linearGradient id="paint8_linear_175_1901" x1="68.5" y1="309" x2="68.5" y2="620.381" gradientUnits="userSpaceOnUse">
<stop stop-color="#F7DD43"/>
<stop offset="1" stop-color="#F7DD43" stop-opacity="0"/>
</linearGradient>
<linearGradient id="paint9_linear_175_1901" x1="68.5" y1="309" x2="68.5" y2="620.381" gradientUnits="userSpaceOnUse">
<stop stop-color="#F7DD43"/>
<stop offset="1" stop-color="#F7DD43" stop-opacity="0"/>
</linearGradient>
<linearGradient id="paint10_linear_175_1901" x1="68.5" y1="309" x2="68.5" y2="620.381" gradientUnits="userSpaceOnUse">
<stop stop-color="#F7DD43"/>
<stop offset="1" stop-color="#F7DD43" stop-opacity="0"/>
</linearGradient>
<linearGradient id="paint11_linear_175_1901" x1="68.5" y1="309" x2="68.5" y2="620.381" gradientUnits="userSpaceOnUse">
<stop stop-color="#F7DD43"/>
<stop offset="1" stop-color="#F7DD43" stop-opacity="0"/>
</linearGradient>
<linearGradient id="paint12_linear_175_1901" x1="68.5" y1="309" x2="68.5" y2="620.381" gradientUnits="userSpaceOnUse">
<stop stop-color="#F7DD43"/>
<stop offset="1" stop-color="#F7DD43" stop-opacity="0"/>
</linearGradient>
<linearGradient id="paint13_linear_175_1901" x1="68.5" y1="309" x2="68.5" y2="620.381" gradientUnits="userSpaceOnUse">
<stop stop-color="#F7DD43"/>
<stop offset="1" stop-color="#F7DD43" stop-opacity="0"/>
</linearGradient>
<linearGradient id="paint14_linear_175_1901" x1="68.5" y1="309" x2="68.5" y2="620.381" gradientUnits="userSpaceOnUse">
<stop stop-color="#F7DD43"/>
<stop offset="1" stop-color="#F7DD43" stop-opacity="0"/>
</linearGradient>
<linearGradient id="paint15_linear_175_1901" x1="68.5" y1="309" x2="68.5" y2="620.381" gradientUnits="userSpaceOnUse">
<stop stop-color="#F7DD43"/>
<stop offset="1" stop-color="#F7DD43" stop-opacity="0"/>
</linearGradient>
<linearGradient id="paint16_linear_175_1901" x1="68.5" y1="309" x2="68.5" y2="620.381" gradientUnits="userSpaceOnUse">
<stop stop-color="#F7DD43"/>
<stop offset="1" stop-color="#F7DD43" stop-opacity="0"/>
</linearGradient>
<linearGradient id="paint17_linear_175_1901" x1="68.5" y1="309" x2="68.5" y2="620.381" gradientUnits="userSpaceOnUse">
<stop stop-color="#F7DD43"/>
<stop offset="1" stop-color="#F7DD43" stop-opacity="0"/>
</linearGradient>
<linearGradient id="paint18_linear_175_1901" x1="68.5" y1="309" x2="68.5" y2="620.381" gradientUnits="userSpaceOnUse">
<stop stop-color="#F7DD43"/>
<stop offset="1" stop-color="#F7DD43" stop-opacity="0"/>
</linearGradient>
<linearGradient id="paint19_linear_175_1901" x1="68.5" y1="309" x2="68.5" y2="620.381" gradientUnits="userSpaceOnUse">
<stop stop-color="#F7DD43"/>
<stop offset="1" stop-color="#F7DD43" stop-opacity="0"/>
</linearGradient>
<linearGradient id="paint20_linear_175_1901" x1="68.5" y1="309" x2="68.5" y2="620.381" gradientUnits="userSpaceOnUse">
<stop stop-color="#F7DD43"/>
<stop offset="1" stop-color="#F7DD43" stop-opacity="0"/>
</linearGradient>
<linearGradient id="paint21_linear_175_1901" x1="68.5" y1="309" x2="68.5" y2="620.381" gradientUnits="userSpaceOnUse">
<stop stop-color="#F7DD43"/>
<stop offset="1" stop-color="#F7DD43" stop-opacity="0"/>
</linearGradient>
<linearGradient id="paint22_linear_175_1901" x1="68.5" y1="309" x2="68.5" y2="620.381" gradientUnits="userSpaceOnUse">
<stop stop-color="#F7DD43"/>
<stop offset="1" stop-color="#F7DD43" stop-opacity="0"/>
</linearGradient>
<linearGradient id="paint23_linear_175_1901" x1="68.5" y1="309" x2="68.5" y2="620.381" gradientUnits="userSpaceOnUse">
<stop stop-color="#F7DD43"/>
<stop offset="1" stop-color="#F7DD43" stop-opacity="0"/>
</linearGradient>
<linearGradient id="paint24_linear_175_1901" x1="68.5" y1="309" x2="68.5" y2="620.381" gradientUnits="userSpaceOnUse">
<stop stop-color="#F7DD43"/>
<stop offset="1" stop-color="#F7DD43" stop-opacity="0"/>
</linearGradient>
<linearGradient id="paint25_linear_175_1901" x1="68.5" y1="309" x2="68.5" y2="620.381" gradientUnits="userSpaceOnUse">
<stop stop-color="#F7DD43"/>
<stop offset="1" stop-color="#F7DD43" stop-opacity="0"/>
</linearGradient>
<linearGradient id="paint26_linear_175_1901" x1="68.5" y1="309" x2="68.5" y2="620.381" gradientUnits="userSpaceOnUse">
<stop stop-color="#F7DD43"/>
<stop offset="1" stop-color="#F7DD43" stop-opacity="0"/>
</linearGradient>
<linearGradient id="paint27_linear_175_1901" x1="68.5" y1="309" x2="68.5" y2="620.381" gradientUnits="userSpaceOnUse">
<stop stop-color="#F7DD43"/>
<stop offset="1" stop-color="#F7DD43" stop-opacity="0"/>
</linearGradient>
<linearGradient id="paint28_linear_175_1901" x1="68.5" y1="309" x2="68.5" y2="620.381" gradientUnits="userSpaceOnUse">
<stop stop-color="#F7DD43"/>
<stop offset="1" stop-color="#F7DD43" stop-opacity="0"/>
</linearGradient>
<linearGradient id="paint29_linear_175_1901" x1="68.5" y1="309" x2="68.5" y2="620.381" gradientUnits="userSpaceOnUse">
<stop stop-color="#F7DD43"/>
<stop offset="1" stop-color="#F7DD43" stop-opacity="0"/>
</linearGradient>
<linearGradient id="paint30_linear_175_1901" x1="68.5" y1="309" x2="68.5" y2="620.381" gradientUnits="userSpaceOnUse">
<stop stop-color="#F7DD43"/>
<stop offset="1" stop-color="#F7DD43" stop-opacity="0"/>
</linearGradient>
<linearGradient id="paint31_linear_175_1901" x1="68.5" y1="309" x2="68.5" y2="620.381" gradientUnits="userSpaceOnUse">
<stop stop-color="#F7DD43"/>
<stop offset="1" stop-color="#F7DD43" stop-opacity="0"/>
</linearGradient>
<linearGradient id="paint32_linear_175_1901" x1="68.5" y1="309" x2="68.5" y2="620.381" gradientUnits="userSpaceOnUse">
<stop stop-color="#F7DD43"/>
<stop offset="1" stop-color="#F7DD43" stop-opacity="0"/>
</linearGradient>
<linearGradient id="paint33_linear_175_1901" x1="68.5" y1="309" x2="68.5" y2="620.381" gradientUnits="userSpaceOnUse">
<stop stop-color="#F7DD43"/>
<stop offset="1" stop-color="#F7DD43" stop-opacity="0"/>
</linearGradient>
<linearGradient id="paint34_linear_175_1901" x1="68.5" y1="309" x2="68.5" y2="620.381" gradientUnits="userSpaceOnUse">
<stop stop-color="#F7DD43"/>
<stop offset="1" stop-color="#F7DD43" stop-opacity="0"/>
</linearGradient>
<linearGradient id="paint35_linear_175_1901" x1="68.5" y1="309" x2="68.5" y2="620.381" gradientUnits="userSpaceOnUse">
<stop stop-color="#F7DD43"/>
<stop offset="1" stop-color="#F7DD43" stop-opacity="0"/>
</linearGradient>
<linearGradient id="paint36_linear_175_1901" x1="68.5" y1="309" x2="68.5" y2="620.381" gradientUnits="userSpaceOnUse">
<stop stop-color="#F7DD43"/>
<stop offset="1" stop-color="#F7DD43" stop-opacity="0"/>
</linearGradient>
<linearGradient id="paint37_linear_175_1901" x1="68.5" y1="309" x2="68.5" y2="620.381" gradientUnits="userSpaceOnUse">
<stop stop-color="#F7DD43"/>
<stop offset="1" stop-color="#F7DD43" stop-opacity="0"/>
</linearGradient>
<linearGradient id="paint38_linear_175_1901" x1="68.5" y1="309" x2="68.5" y2="620.381" gradientUnits="userSpaceOnUse">
<stop stop-color="#F7DD43"/>
<stop offset="1" stop-color="#F7DD43" stop-opacity="0"/>
</linearGradient>
<linearGradient id="paint39_linear_175_1901" x1="68.5" y1="309" x2="68.5" y2="620.381" gradientUnits="userSpaceOnUse">
<stop stop-color="#F7DD43"/>
<stop offset="1" stop-color="#F7DD43" stop-opacity="0"/>
</linearGradient>
<linearGradient id="paint40_linear_175_1901" x1="68.5" y1="309" x2="68.5" y2="620.381" gradientUnits="userSpaceOnUse">
<stop stop-color="#F7DD43"/>
<stop offset="1" stop-color="#F7DD43" stop-opacity="0"/>
</linearGradient>
<linearGradient id="paint41_linear_175_1901" x1="68.5" y1="309" x2="68.5" y2="620.381" gradientUnits="userSpaceOnUse">
<stop stop-color="#F7DD43"/>
<stop offset="1" stop-color="#F7DD43" stop-opacity="0"/>
</linearGradient>
<linearGradient id="paint42_linear_175_1901" x1="68.5" y1="309" x2="68.5" y2="620.381" gradientUnits="userSpaceOnUse">
<stop stop-color="#F7DD43"/>
<stop offset="1" stop-color="#F7DD43" stop-opacity="0"/>
</linearGradient>
<linearGradient id="paint43_linear_175_1901" x1="68.5" y1="309" x2="68.5" y2="620.381" gradientUnits="userSpaceOnUse">
<stop stop-color="#F7DD43"/>
<stop offset="1" stop-color="#F7DD43" stop-opacity="0"/>
</linearGradient>
<linearGradient id="paint44_linear_175_1901" x1="68.5" y1="309" x2="68.5" y2="620.381" gradientUnits="userSpaceOnUse">
<stop stop-color="#F7DD43"/>
<stop offset="1" stop-color="#F7DD43" stop-opacity="0"/>
</linearGradient>
<linearGradient id="paint45_linear_175_1901" x1="68.5" y1="309" x2="68.5" y2="620.381" gradientUnits="userSpaceOnUse">
<stop stop-color="#F7DD43"/>
<stop offset="1" stop-color="#F7DD43" stop-opacity="0"/>
</linearGradient>
<linearGradient id="paint46_linear_175_1901" x1="68.5" y1="309" x2="68.5" y2="620.381" gradientUnits="userSpaceOnUse">
<stop stop-color="#F7DD43"/>
<stop offset="1" stop-color="#F7DD43" stop-opacity="0"/>
</linearGradient>
<linearGradient id="paint47_linear_175_1901" x1="954.5" y1="9" x2="954.5" y2="307.818" gradientUnits="userSpaceOnUse">
<stop stop-color="#F7DD43"/>
<stop offset="1" stop-color="#F7DD43" stop-opacity="0"/>
</linearGradient>
<linearGradient id="paint48_linear_175_1901" x1="954.5" y1="9" x2="954.5" y2="307.818" gradientUnits="userSpaceOnUse">
<stop stop-color="#F7DD43"/>
<stop offset="1" stop-color="#F7DD43" stop-opacity="0"/>
</linearGradient>
<linearGradient id="paint49_linear_175_1901" x1="954.5" y1="9" x2="954.5" y2="307.818" gradientUnits="userSpaceOnUse">
<stop stop-color="#F7DD43"/>
<stop offset="1" stop-color="#F7DD43" stop-opacity="0"/>
</linearGradient>
<linearGradient id="paint50_linear_175_1901" x1="954.5" y1="9" x2="954.5" y2="307.818" gradientUnits="userSpaceOnUse">
<stop stop-color="#F7DD43"/>
<stop offset="1" stop-color="#F7DD43" stop-opacity="0"/>
</linearGradient>
<linearGradient id="paint51_linear_175_1901" x1="954.5" y1="9" x2="954.5" y2="307.818" gradientUnits="userSpaceOnUse">
<stop stop-color="#F7DD43"/>
<stop offset="1" stop-color="#F7DD43" stop-opacity="0"/>
</linearGradient>
<linearGradient id="paint52_linear_175_1901" x1="954.5" y1="9" x2="954.5" y2="307.818" gradientUnits="userSpaceOnUse">
<stop stop-color="#F7DD43"/>
<stop offset="1" stop-color="#F7DD43" stop-opacity="0"/>
</linearGradient>
<linearGradient id="paint53_linear_175_1901" x1="954.5" y1="9" x2="954.5" y2="307.818" gradientUnits="userSpaceOnUse">
<stop stop-color="#F7DD43"/>
<stop offset="1" stop-color="#F7DD43" stop-opacity="0"/>
</linearGradient>
<linearGradient id="paint54_linear_175_1901" x1="954.5" y1="9" x2="954.5" y2="307.818" gradientUnits="userSpaceOnUse">
<stop stop-color="#F7DD43"/>
<stop offset="1" stop-color="#F7DD43" stop-opacity="0"/>
</linearGradient>
<linearGradient id="paint55_linear_175_1901" x1="954.5" y1="9" x2="954.5" y2="307.818" gradientUnits="userSpaceOnUse">
<stop stop-color="#F7DD43"/>
<stop offset="1" stop-color="#F7DD43" stop-opacity="0"/>
</linearGradient>
<linearGradient id="paint56_linear_175_1901" x1="954.5" y1="9" x2="954.5" y2="307.818" gradientUnits="userSpaceOnUse">
<stop stop-color="#F7DD43"/>
<stop offset="1" stop-color="#F7DD43" stop-opacity="0"/>
</linearGradient>
<linearGradient id="paint57_linear_175_1901" x1="954.5" y1="9" x2="954.5" y2="307.818" gradientUnits="userSpaceOnUse">
<stop stop-color="#F7DD43"/>
<stop offset="1" stop-color="#F7DD43" stop-opacity="0"/>
</linearGradient>
<linearGradient id="paint58_linear_175_1901" x1="954.5" y1="9" x2="954.5" y2="307.818" gradientUnits="userSpaceOnUse">
<stop stop-color="#F7DD43"/>
<stop offset="1" stop-color="#F7DD43" stop-opacity="0"/>
</linearGradient>
<linearGradient id="paint59_linear_175_1901" x1="954.5" y1="9" x2="954.5" y2="307.818" gradientUnits="userSpaceOnUse">
<stop stop-color="#F7DD43"/>
<stop offset="1" stop-color="#F7DD43" stop-opacity="0"/>
</linearGradient>
<linearGradient id="paint60_linear_175_1901" x1="954.5" y1="9" x2="954.5" y2="307.818" gradientUnits="userSpaceOnUse">
<stop stop-color="#F7DD43"/>
<stop offset="1" stop-color="#F7DD43" stop-opacity="0"/>
</linearGradient>
<linearGradient id="paint61_linear_175_1901" x1="954.5" y1="9" x2="954.5" y2="307.818" gradientUnits="userSpaceOnUse">
<stop stop-color="#F7DD43"/>
<stop offset="1" stop-color="#F7DD43" stop-opacity="0"/>
</linearGradient>
<linearGradient id="paint62_linear_175_1901" x1="954.5" y1="9" x2="954.5" y2="307.818" gradientUnits="userSpaceOnUse">
<stop stop-color="#F7DD43"/>
<stop offset="1" stop-color="#F7DD43" stop-opacity="0"/>
</linearGradient>
<linearGradient id="paint63_linear_175_1901" x1="954.5" y1="9" x2="954.5" y2="307.818" gradientUnits="userSpaceOnUse">
<stop stop-color="#F7DD43"/>
<stop offset="1" stop-color="#F7DD43" stop-opacity="0"/>
</linearGradient>
<linearGradient id="paint64_linear_175_1901" x1="954.5" y1="9" x2="954.5" y2="307.818" gradientUnits="userSpaceOnUse">
<stop stop-color="#F7DD43"/>
<stop offset="1" stop-color="#F7DD43" stop-opacity="0"/>
</linearGradient>
<linearGradient id="paint65_linear_175_1901" x1="954.5" y1="9" x2="954.5" y2="307.818" gradientUnits="userSpaceOnUse">
<stop stop-color="#F7DD43"/>
<stop offset="1" stop-color="#F7DD43" stop-opacity="0"/>
</linearGradient>
<linearGradient id="paint66_linear_175_1901" x1="954.5" y1="9" x2="954.5" y2="307.818" gradientUnits="userSpaceOnUse">
<stop stop-color="#F7DD43"/>
<stop offset="1" stop-color="#F7DD43" stop-opacity="0"/>
</linearGradient>
<linearGradient id="paint67_linear_175_1901" x1="954.5" y1="9" x2="954.5" y2="307.818" gradientUnits="userSpaceOnUse">
<stop stop-color="#F7DD43"/>
<stop offset="1" stop-color="#F7DD43" stop-opacity="0"/>
</linearGradient>
<linearGradient id="paint68_linear_175_1901" x1="954.5" y1="9" x2="954.5" y2="307.818" gradientUnits="userSpaceOnUse">
<stop stop-color="#F7DD43"/>
<stop offset="1" stop-color="#F7DD43" stop-opacity="0"/>
</linearGradient>
<linearGradient id="paint69_linear_175_1901" x1="954.5" y1="9" x2="954.5" y2="307.818" gradientUnits="userSpaceOnUse">
<stop stop-color="#F7DD43"/>
<stop offset="1" stop-color="#F7DD43" stop-opacity="0"/>
</linearGradient>
<linearGradient id="paint70_linear_175_1901" x1="954.5" y1="9" x2="954.5" y2="307.818" gradientUnits="userSpaceOnUse">
<stop stop-color="#F7DD43"/>
<stop offset="1" stop-color="#F7DD43" stop-opacity="0"/>
</linearGradient>
<linearGradient id="paint71_linear_175_1901" x1="954.5" y1="9" x2="954.5" y2="307.818" gradientUnits="userSpaceOnUse">
<stop stop-color="#F7DD43"/>
<stop offset="1" stop-color="#F7DD43" stop-opacity="0"/>
</linearGradient>
<linearGradient id="paint72_linear_175_1901" x1="954.5" y1="9" x2="954.5" y2="307.818" gradientUnits="userSpaceOnUse">
<stop stop-color="#F7DD43"/>
<stop offset="1" stop-color="#F7DD43" stop-opacity="0"/>
</linearGradient>
<linearGradient id="paint73_linear_175_1901" x1="954.5" y1="9" x2="954.5" y2="307.818" gradientUnits="userSpaceOnUse">
<stop stop-color="#F7DD43"/>
<stop offset="1" stop-color="#F7DD43" stop-opacity="0"/>
</linearGradient>
<linearGradient id="paint74_linear_175_1901" x1="954.5" y1="9" x2="954.5" y2="307.818" gradientUnits="userSpaceOnUse">
<stop stop-color="#F7DD43"/>
<stop offset="1" stop-color="#F7DD43" stop-opacity="0"/>
</linearGradient>
<linearGradient id="paint75_linear_175_1901" x1="954.5" y1="9" x2="954.5" y2="307.818" gradientUnits="userSpaceOnUse">
<stop stop-color="#F7DD43"/>
<stop offset="1" stop-color="#F7DD43" stop-opacity="0"/>
</linearGradient>
<linearGradient id="paint76_linear_175_1901" x1="954.5" y1="9" x2="954.5" y2="307.818" gradientUnits="userSpaceOnUse">
<stop stop-color="#F7DD43"/>
<stop offset="1" stop-color="#F7DD43" stop-opacity="0"/>
</linearGradient>
<linearGradient id="paint77_linear_175_1901" x1="954.5" y1="9" x2="954.5" y2="307.818" gradientUnits="userSpaceOnUse">
<stop stop-color="#F7DD43"/>
<stop offset="1" stop-color="#F7DD43" stop-opacity="0"/>
</linearGradient>
<linearGradient id="paint78_linear_175_1901" x1="954.5" y1="9" x2="954.5" y2="307.818" gradientUnits="userSpaceOnUse">
<stop stop-color="#F7DD43"/>
<stop offset="1" stop-color="#F7DD43" stop-opacity="0"/>
</linearGradient>
<linearGradient id="paint79_linear_175_1901" x1="954.5" y1="9" x2="954.5" y2="307.818" gradientUnits="userSpaceOnUse">
<stop stop-color="#F7DD43"/>
<stop offset="1" stop-color="#F7DD43" stop-opacity="0"/>
</linearGradient>
<linearGradient id="paint80_linear_175_1901" x1="954.5" y1="9" x2="954.5" y2="307.818" gradientUnits="userSpaceOnUse">
<stop stop-color="#F7DD43"/>
<stop offset="1" stop-color="#F7DD43" stop-opacity="0"/>
</linearGradient>
<linearGradient id="paint81_linear_175_1901" x1="954.5" y1="9" x2="954.5" y2="307.818" gradientUnits="userSpaceOnUse">
<stop stop-color="#F7DD43"/>
<stop offset="1" stop-color="#F7DD43" stop-opacity="0"/>
</linearGradient>
<linearGradient id="paint82_linear_175_1901" x1="954.5" y1="9" x2="954.5" y2="307.818" gradientUnits="userSpaceOnUse">
<stop stop-color="#F7DD43"/>
<stop offset="1" stop-color="#F7DD43" stop-opacity="0"/>
</linearGradient>
<linearGradient id="paint83_linear_175_1901" x1="954.5" y1="9" x2="954.5" y2="307.818" gradientUnits="userSpaceOnUse">
<stop stop-color="#F7DD43"/>
<stop offset="1" stop-color="#F7DD43" stop-opacity="0"/>
</linearGradient>
<linearGradient id="paint84_linear_175_1901" x1="954.5" y1="9" x2="954.5" y2="307.818" gradientUnits="userSpaceOnUse">
<stop stop-color="#F7DD43"/>
<stop offset="1" stop-color="#F7DD43" stop-opacity="0"/>
</linearGradient>
<linearGradient id="paint85_linear_175_1901" x1="954.5" y1="9" x2="954.5" y2="307.818" gradientUnits="userSpaceOnUse">
<stop stop-color="#F7DD43"/>
<stop offset="1" stop-color="#F7DD43" stop-opacity="0"/>
</linearGradient>
<linearGradient id="paint86_linear_175_1901" x1="954.5" y1="9" x2="954.5" y2="307.818" gradientUnits="userSpaceOnUse">
<stop stop-color="#F7DD43"/>
<stop offset="1" stop-color="#F7DD43" stop-opacity="0"/>
</linearGradient>
<linearGradient id="paint87_linear_175_1901" x1="954.5" y1="9" x2="954.5" y2="307.818" gradientUnits="userSpaceOnUse">
<stop stop-color="#F7DD43"/>
<stop offset="1" stop-color="#F7DD43" stop-opacity="0"/>
</linearGradient>
<linearGradient id="paint88_linear_175_1901" x1="954.5" y1="9" x2="954.5" y2="307.818" gradientUnits="userSpaceOnUse">
<stop stop-color="#F7DD43"/>
<stop offset="1" stop-color="#F7DD43" stop-opacity="0"/>
</linearGradient>
<linearGradient id="paint89_linear_175_1901" x1="954.5" y1="9" x2="954.5" y2="307.818" gradientUnits="userSpaceOnUse">
<stop stop-color="#F7DD43"/>
<stop offset="1" stop-color="#F7DD43" stop-opacity="0"/>
</linearGradient>
<linearGradient id="paint90_linear_175_1901" x1="954.5" y1="9" x2="954.5" y2="307.818" gradientUnits="userSpaceOnUse">
<stop stop-color="#F7DD43"/>
<stop offset="1" stop-color="#F7DD43" stop-opacity="0"/>
</linearGradient>
<linearGradient id="paint91_linear_175_1901" x1="954.5" y1="9" x2="954.5" y2="307.818" gradientUnits="userSpaceOnUse">
<stop stop-color="#F7DD43"/>
<stop offset="1" stop-color="#F7DD43" stop-opacity="0"/>
</linearGradient>
<linearGradient id="paint92_linear_175_1901" x1="954.5" y1="9" x2="954.5" y2="307.818" gradientUnits="userSpaceOnUse">
<stop stop-color="#F7DD43"/>
<stop offset="1" stop-color="#F7DD43" stop-opacity="0"/>
</linearGradient>
<linearGradient id="paint93_linear_175_1901" x1="954.5" y1="9" x2="954.5" y2="307.818" gradientUnits="userSpaceOnUse">
<stop stop-color="#F7DD43"/>
<stop offset="1" stop-color="#F7DD43" stop-opacity="0"/>
</linearGradient>
<clipPath id="clip0_175_1901">
<rect width="1024" height="753" fill="white"/>
</clipPath>
</defs>
</svg>
